<?xml version="1.0" standalone="no"?>
<!DOCTYPE svg PUBLIC "-//W3C//DTD SVG 20010904//EN"
 "http://www.w3.org/TR/2001/REC-SVG-20010904/DTD/svg10.dtd">
<svg version="1.0" xmlns="http://www.w3.org/2000/svg"
 width="1024.000000pt" height="1024.000000pt" viewBox="0 0 1024.000000 1024.000000"
 preserveAspectRatio="xMidYMid meet">

<g transform="translate(0.000000,1024.000000) scale(0.100000,-0.100000)"
fill="currentColor" stroke="none">
<path d="M4912 9436 c-158 -39 -335 -179 -400 -319 -18 -37 -32 -71 -32 -76 0
-6 -5 -22 -10 -36 l-10 -26 -52 45 c-113 99 -250 150 -398 149 -181 -1 -299
-50 -426 -177 -92 -91 -134 -165 -165 -284 -18 -73 -19 -128 -19 -1815 l0
-1739 -117 122 c-458 478 -972 750 -1428 754 -109 1 -124 -1 -169 -24 -28 -14
-64 -42 -80 -63 -26 -32 -30 -47 -31 -95 0 -55 6 -68 162 -357 450 -835 597
-1206 642 -1626 25 -229 118 -395 305 -548 140 -115 247 -174 726 -404 210
-100 276 -141 356 -221 123 -123 134 -175 134 -632 0 -311 -1 -334 -17 -334
-61 -1 -179 -93 -218 -170 -43 -84 -47 -138 -43 -575 l3 -410 27 -57 c35 -75
95 -138 165 -174 l58 -29 1805 0 1805 0 55 26 c72 34 136 97 168 167 l27 57 0
455 0 455 -29 62 c-44 96 -133 172 -219 188 l-37 7 2 492 3 491 38 104 c70
191 165 624 201 911 52 410 49 319 53 2119 4 1664 4 1684 -16 1763 -49 194
-204 361 -395 429 -124 43 -280 45 -403 3 -51 -17 -178 -87 -188 -104 -17 -28
-22 4 -21 143 1 176 -8 224 -66 346 -78 164 -250 298 -433 336 -89 19 -144 19
-239 0 -87 -16 -180 -58 -249 -110 l-47 -36 0 121 c0 235 -54 383 -188 518
-87 88 -174 139 -292 171 -86 24 -214 27 -298 7z m266 -231 c115 -34 227 -138
275 -255 l22 -55 5 -1468 5 -1469 33 -29 c45 -40 99 -40 144 0 l33 29 5 1149
5 1148 33 67 c42 86 105 149 190 190 63 31 74 33 172 33 97 0 110 -2 171 -31
78 -37 136 -87 177 -152 65 -102 62 -28 62 -1409 0 -1351 -2 -1299 51 -1337
26 -18 81 -21 109 -6 46 24 45 5 50 995 l5 940 23 58 c32 79 116 168 195 207
115 56 250 56 362 1 135 -67 216 -185 236 -341 7 -57 9 -605 6 -1645 -3 -1374
-5 -1582 -20 -1745 -47 -499 -138 -959 -252 -1262 l-35 -95 2 -497 3 -496
-1566 0 -1567 0 -4 357 c-6 400 -12 451 -74 579 -19 39 -57 96 -85 127 -98
110 -190 167 -584 362 -203 101 -406 207 -450 236 -114 75 -242 207 -283 292
-37 76 -46 116 -62 267 -44 414 -237 889 -702 1724 l-88 159 122 -6 c250 -11
495 -101 763 -280 262 -174 511 -417 693 -673 35 -49 73 -94 85 -101 40 -23
94 -16 129 16 l33 29 5 1914 c5 1859 6 1914 24 1958 46 108 132 196 224 230
223 84 456 -27 549 -260 17 -42 18 -126 23 -1292 l5 -1248 31 -31 c26 -25 40
-31 72 -31 43 1 85 22 99 50 4 9 10 643 13 1407 l5 1390 23 55 c49 115 140
202 254 241 66 23 176 24 246 4z m2287 -7689 c65 -28 65 -28 63 -493 l-3 -418
-5 427 -5 428 -28 27 -27 28 -1773 5 -1772 5 1758 3 c1500 2 1763 0 1792 -12z
m-3586 -24 c-30 -27 -32 -34 -39 -123 -7 -87 -7 -89 -8 -28 -1 37 1 80 4 98 6
41: 30 47 81 66 81 4 0 -6 -13 -23 -28z m-42 -329 c-3 -10 -5 -4 -5 12 0 17 2 24
42: 5 18 2 -7 2 -21 0 -30z m778 -43 c17 -11 26 -20 20 -20 -5 1 -19 7 -29 15 -29
43: 22 -394 22 -436 0 -38 -20 -40 -11 -2 9 21 12 69 15 222 16 178 0 198 -2 225
44: -20z m-778 -62 c-2 -13 -4 -5 -4 17 -1 22 1 32 4 23 2 -10 2 -28 0 -40z m293
45: 13 c-21 -41 -12 -91 24 -127 l34 -34 196 0 c214 0 242 6 264 55 15 32 15 79 1
46: 108 -10 21 -10 21 5 3 35 -43 10 -133 -44 -161 -44 -23 -400 -22 -440 1 -35
47: 21 -60 64 -60 104 0 30 15 70 26 70 2 0 0 -9 -6 -19z m-293 -173 c-2 -13 -4
48: -3 -4 22 0 25 2 35 4 23 2 -13 2 -33 0 -45z m0 -185 c-2 -27 -3 -5 -3 47 0 52
49: 1 74 3 48 2 -27 2 -69 0 -95z m51 -160 c16 -12 16 -13 -1 -7 -18 7 -47 53 -47
50: 76 1 7 7 -2 16 -21 8 -19 22 -40 32 -48z m3604 6 c-18 -16 -42 -29 -55 -28
51: -17 1 -15 3 10 10 18 5 40 20 50 33 10 13 20 22 23 19 3 -2 -10 -18 -28 -34z
52: m-3555 -25 c-3 -3 -12 -4 -19 -1 -8 3 -5 6 6 6 11 1 17 -2 13 -5z m223 -10 c0
53: -2 -7 -4 -15 -4 -8 0 -15 4 -15 10 0 5 7 7 15 4 8 -4 15 -8 15 -10z m485 6
54: c-3 -5 -14 -10 -23 -9 -14 0 -13 2 3 9 27 11 27 11 20 0z m89 2 c3 -5 -1 -9
55: -9 -9 -8 0 -12 4 -9 9 3 4 7 8 9 8 2 0 6 -4 9 -8z m555 -3 c-18 -11 -39 -11
56: -39 0 0 5 12 9 26 9 18 0 22 -3 13 -9z m741 -4 c0 -2 -9 -3 -19 -2 -11 0 -18
57: 5 -15 9 4 6 34 0 34 -7z m240 0 c0 -2 -9 -3 -19 -2 -11 0 -18 5 -15 9 4 6 34
58: 0 34 -7z m384 7 c3 -5 -16 -9 -42 -9 l-47 -1 40 8 c22 4 41 8 42 9 1 0 4 -3 7
59: -7z m177 -10 c-7 -2 -18 1 -23 6 -8 8 -4 9 13 5 13 -4 18 -8 10 -11z m529 8
60: c0 -5 -7 -7 -15 -4 -8 4 -15 8 -15 10 0 2 7 4 15 4 8 0 15 -4 15 -10z m-3367
61: -7 c-7 -2 -21 -2 -30 0 -10 3 -4 5 12 5 17 0 24 -2 18 -5z m234 1 c-3 -3 -12
62: -4 -19 -1 -8 3 -5 6 6 6 11 1 17 -2 13 -5z m1740 0 c-3 -3 -12 -4 -19 -1 -8 3
63: -5 6 6 6 11 1 17 -2 13 -5z m350 0 c-3 -3 -12 -4 -19 -1 -8 3 -5 6 6 6 11 1
64: 17 -2 13 -5z m160 0 c-3 -3 -12 -4 -19 -1 -8 3 -5 6 6 6 11 1 17 -2 13 -5z
65: m76 -1 c-7 -2 -19 -2 -25 0 -7 3 -2 5 12 5 14 0 19 -2 13 -5z"/>
</g>
</svg>
